<svg width="18" height="17" viewBox="0 0 18 17" fill="none" xmlns="http://www.w3.org/2000/svg">
<g clip-path="url(#clip0_109_726)">
<path d="M9.16076 10.6579C10.3237 10.6579 11.2665 9.71511 11.2665 8.55213C11.2665 7.38915 10.3237 6.44637 9.16076 6.44637C7.99778 6.44637 7.05499 7.38915 7.05499 8.55213C7.05499 9.71511 7.99778 10.6579 9.16076 10.6579Z" stroke="#4361EE" stroke-width="1.1486" stroke-linecap="round" stroke-linejoin="round"/>
<path d="M14.355 10.6585C14.2616 10.8702 14.2337 11.1051 14.275 11.3328C14.3163 11.5605 14.4248 11.7706 14.5866 11.936L14.6287 11.9781C14.7593 12.1085 14.8628 12.2633 14.9335 12.4338C15.0041 12.6042 15.0405 12.7869 15.0405 12.9713C15.0405 13.1558 15.0041 13.3385 14.9335 13.5089C14.8628 13.6794 14.7593 13.8342 14.6287 13.9646C14.4984 14.0951 14.3435 14.1986 14.1731 14.2693C14.0027 14.3399 13.82 14.3763 13.6355 14.3763C13.451 14.3763 13.2684 14.3399 13.0979 14.2693C12.9275 14.1986 12.7727 14.0951 12.6423 13.9646L12.6002 13.9224C12.4348 13.7606 12.2247 13.6521 11.997 13.6108C11.7693 13.5695 11.5344 13.5974 11.3227 13.6908C11.1151 13.7798 10.938 13.9275 10.8133 14.1159C10.6886 14.3042 10.6217 14.5248 10.6208 14.7507V14.87C10.6208 15.2424 10.4729 15.5994 10.2096 15.8627C9.94632 16.126 9.58925 16.2739 9.21693 16.2739C8.84461 16.2739 8.48753 16.126 8.22426 15.8627C7.96099 15.5994 7.81308 15.2424 7.81308 14.87V14.8069C7.80765 14.5745 7.73245 14.3492 7.59725 14.1602C7.46206 13.9712 7.27312 13.8272 7.05501 13.747C6.8433 13.6535 6.60845 13.6257 6.38075 13.6669C6.15305 13.7082 5.94294 13.8168 5.77751 13.9786L5.7354 14.0207C5.60502 14.1512 5.45019 14.2548 5.27977 14.3254C5.10934 14.3961 4.92666 14.4324 4.74218 14.4324C4.55769 14.4324 4.37501 14.3961 4.20459 14.3254C4.03417 14.2548 3.87934 14.1512 3.74896 14.0207C3.61843 13.8903 3.51489 13.7355 3.44424 13.5651C3.37359 13.3947 3.33723 13.212 3.33723 13.0275C3.33723 12.843 3.37359 12.6603 3.44424 12.4899C3.51489 12.3195 3.61843 12.1647 3.74896 12.0343L3.79107 11.9922C3.95289 11.8267 4.06144 11.6166 4.10273 11.3889C4.14402 11.1612 4.11614 10.9264 4.02271 10.7147C3.93373 10.5071 3.78599 10.33 3.59767 10.2053C3.40935 10.0806 3.18868 10.0136 2.96281 10.0127H2.84348C2.47116 10.0127 2.11408 9.86484 1.85081 9.60157C1.58754 9.3383 1.43964 8.98123 1.43964 8.6089C1.43964 8.23658 1.58754 7.87951 1.85081 7.61624C2.11408 7.35296 2.47116 7.20506 2.84348 7.20506H2.90665C3.13898 7.19963 3.36431 7.12442 3.55333 6.98923C3.74236 6.85403 3.88634 6.6651 3.96655 6.44698C4.05999 6.23527 4.08786 6.00043 4.04658 5.77273C4.00529 5.54503 3.89674 5.33492 3.73492 5.16949L3.6928 5.12737C3.56228 4.99699 3.45873 4.84216 3.38809 4.67174C3.31744 4.50132 3.28108 4.31864 3.28108 4.13415C3.28108 3.94967 3.31744 3.76699 3.38809 3.59656C3.45873 3.42614 3.56228 3.27131 3.6928 3.14093C3.82318 3.01041 3.97801 2.90686 4.14844 2.83622C4.31886 2.76557 4.50154 2.72921 4.68602 2.72921C4.87051 2.72921 5.05319 2.76557 5.22361 2.83622C5.39404 2.90686 5.54886 3.01041 5.67924 3.14093L5.72136 3.18305C5.88679 3.34487 6.0969 3.45342 6.3246 3.49471C6.5523 3.53599 6.78714 3.50812 6.99886 3.41468H7.05501C7.26262 3.32571 7.43967 3.17796 7.56439 2.98965C7.6891 2.80133 7.75603 2.58065 7.75693 2.35478V2.23545C7.75693 1.86313 7.90484 1.50606 8.16811 1.24279C8.43138 0.979516 8.78845 0.831612 9.16077 0.831612C9.5331 0.831612 9.89017 0.979516 10.1534 1.24279C10.4167 1.50606 10.5646 1.86313 10.5646 2.23545V2.29863C10.5655 2.5245 10.6324 2.74517 10.7572 2.93349C10.8819 3.12181 11.0589 3.26955 11.2665 3.35853C11.4783 3.45197 11.7131 3.47984 11.9408 3.43855C12.1685 3.39727 12.3786 3.28871 12.544 3.1269L12.5862 3.08478C12.7165 2.95426 12.8714 2.85071 13.0418 2.78006C13.2122 2.70941 13.3949 2.67305 13.5794 2.67305C13.7639 2.67305 13.9465 2.70941 14.117 2.78006C14.2874 2.85071 14.4422 2.95426 14.5726 3.08478C14.7031 3.21516 14.8067 3.36999 14.8773 3.54041C14.948 3.71083 14.9843 3.89351 14.9843 4.078C14.9843 4.26249 14.948 4.44516 14.8773 4.61559C14.8067 4.78601 14.7031 4.94084 14.5726 5.07122L14.5305 5.11333C14.3687 5.27876 14.2601 5.48887 14.2188 5.71657C14.1775 5.94427 14.2054 6.17912 14.2988 6.39083V6.44698C14.3878 6.65459 14.5356 6.83165 14.7239 6.95636C14.9122 7.08108 15.1329 7.14801 15.3587 7.14891H15.4781C15.8504 7.14891 16.2075 7.29681 16.4707 7.56008C16.734 7.82335 16.8819 8.18043 16.8819 8.55275C16.8819 8.92507 16.734 9.28214 16.4707 9.54542C16.2075 9.80869 15.8504 9.95659 15.4781 9.95659H15.4149C15.189 9.95749 14.9684 10.0244 14.78 10.1491C14.5917 10.2738 14.444 10.4509 14.355 10.6585V10.6585Z" stroke="#4361EE" stroke-width="1.1486" stroke-linecap="round" stroke-linejoin="round"/>
</g>
<defs>
<clipPath id="clip0_109_726">
<rect width="16.8461" height="16.8461" fill="white" transform="translate(0.737671 0.129074)"/>
</clipPath>
</defs>
</svg>
